<svg width="962" height="198" viewBox="0 0 962 198" fill="none" xmlns="http://www.w3.org/2000/svg">
<path fill-rule="evenodd" clip-rule="evenodd" d="M821.38 54.0938C823.32 56.0338 825.58 57.5938 828.1 58.7338C830.7 59.9138 833.47 60.5138 836.32 60.5138C839.15 60.5138 841.94 59.9238 844.63 58.7638C847.24 57.6338 849.59 56.0938 851.63 54.1738C853.67 52.2438 855.34 49.9838 856.6 47.4338C857.91 44.7638 858.58 41.8738 858.58 38.8538C858.58 35.7938 857.94 32.8738 856.68 30.1838C855.46 27.6038 853.83 25.2938 851.83 23.3338C849.81 21.3538 847.46 19.7938 844.85 18.6838C839.58 16.4538 833.54 16.3938 828.3 18.7738C825.79 19.9138 823.5 21.4838 821.51 23.4438C819.5 25.4138 817.88 27.7338 816.69 30.3338C815.48 33.0038 814.86 35.8738 814.86 38.8538C814.86 41.8438 815.48 44.7038 816.7 47.3438C817.87 49.9038 819.45 52.1738 821.38 54.0938ZM344.26 17.5838L325.35 173.124H363.4L382.31 17.5838H344.26ZM478.48 66.1638C473.38 64.3738 468.13 63.1138 462.89 62.4238C457.74 61.7438 452.58 61.4038 447.58 61.4038C437.08 61.4038 427.29 63.3738 418.47 67.2638C409.69 71.1338 401.99 76.4338 395.59 83.0138C389.18 89.5938 384.12 97.3738 380.56 106.124C377 114.874 375.19 124.254 375.19 133.994C375.19 140.704 376.06 146.664 377.77 151.684C379.51 156.794 381.89 161.084 384.85 164.444C387.85 167.854 391.37 170.454 395.31 172.164C399.21 173.854 403.31 174.704 407.52 174.704C414.44 174.704 420.87 172.814 426.65 169.104C429.51 167.264 432.24 165.064 434.81 162.524C434.9 163.154 435.02 163.764 435.17 164.354C435.62 166.154 436.44 167.734 437.61 169.044C438.78 170.374 440.32 171.404 442.19 172.124C443.94 172.794 445.96 173.124 448.38 173.124H468.2L481.45 67.2038L478.48 66.1638ZM415.9 140.454C415.25 139.414 414.7 137.944 414.28 136.084C413.82 134.084 413.59 131.554 413.59 128.564C413.59 123.194 414.34 118.104 415.83 113.404C417.3 108.764 419.39 104.654 422.06 101.184C424.67 97.7838 427.83 95.0638 431.44 93.1038C434.25 91.5738 437.34 90.6538 440.67 90.3438L437.63 113.914C436.57 118.054 435.28 121.984 433.81 125.614C432.33 129.254 430.7 132.454 428.97 135.124C427.34 137.654 425.61 139.644 423.84 141.054C422.43 142.174 421.1 142.724 419.76 142.724C418.96 142.724 418.26 142.554 417.61 142.204C417 141.874 416.43 141.284 415.9 140.454ZM311.16 112.724H270.72L267.25 140.554H320.85L316.7 173.124H223L241.73 21.5338H335.26L331.11 54.1038H277.94L274.64 81.0438H315.35L311.16 112.724ZM802.12 173.124L815.29 62.9838H853.35L840.18 173.124H802.12ZM961.9 69.2338L958.79 62.9838H930.96C928.17 62.9838 924.2 64.0238 921.17 68.9138L908.6 88.4138L900.17 68.8338C899.25 66.7838 897.97 65.2638 896.38 64.3138C894.84 63.4038 892.85 62.9838 890.1 62.9838H855.82L880.54 113.374L841.94 166.944L845.1 173.124H872.14C875.03 173.124 877.5 172.224 879.48 170.454C880.92 169.164 882.22 167.744 883.36 166.234L899.95 141.184L909.79 165.374C910.6 167.354 911.81 169.094 913.38 170.524C915.27 172.254 917.73 173.124 920.7 173.124H954.79L927.87 114.164L961.9 69.2338ZM600.56 33.2838H621.55L617.81 63.5138H685.41L671.92 173.154H634.55L644.71 91.5338H614.38L609.77 128.674L609.742 128.901C609.425 131.494 609.174 133.548 608.98 135.054C608.886 135.813 608.801 136.487 608.728 137.072L608.718 137.147L608.715 137.175C608.646 137.723 608.587 138.19 608.54 138.574C608.43 139.504 608.42 139.774 608.42 139.804V140.334C608.42 141.444 608.63 142.284 609.06 142.904C609.17 143.074 609.51 143.154 610.05 143.154C610.93 143.154 611.33 143.044 611.43 143.014C611.89 142.864 612.28 142.704 612.59 142.524C613.17 142.204 613.72 141.914 614.23 141.654C615.24 141.144 616.36 140.894 617.56 140.894C619.49 140.894 621.08 141.454 622.28 142.574C623.14 143.384 623.86 144.454 624.47 145.864L632.51 163.234L629.92 165.114C625.52 168.304 620.73 170.734 615.68 172.334C610.65 173.924 605.5 174.734 600.39 174.734C596.02 174.734 592.01 174.114 588.46 172.894C584.81 171.644 581.62 169.774 578.96 167.354C576.3 164.924 574.2 161.984 572.7 158.604C571.22 155.264 570.4 151.464 570.25 147.294V147.154V145.474C570.25 144.704 570.3 143.674 570.41 142.344C570.52 141.044 570.69 139.374 570.92 137.374C571.15 135.364 571.46 132.714 571.86 129.414L576.55 91.5338H573.36C570.77 91.5338 568.5 90.5738 566.81 88.7638C565.58 87.4438 564.22 85.0638 564.76 81.1738L564.84 80.5738L557.39 90.8138C556.2 92.3538 555.06 93.4638 553.91 94.2338C552.48 95.1838 550.69 95.6738 548.59 95.6738C546.71 95.6738 544.85 95.2538 543.06 94.4238C541.72 93.8138 540.28 93.1038 538.77 92.3338C537.49 91.6738 536 91.0738 534.34 90.5538C532.85 90.0838 531.07 89.8438 529.05 89.8438C524.42 89.8438 522.6 90.8638 521.93 91.4638C520.81 92.4738 520.31 93.6638 520.31 95.3238C520.31 96.1538 520.51 96.7638 520.98 97.3038C521.76 98.2038 522.85 99.0438 524.22 99.8038C525.81 100.694 527.66 101.514 529.72 102.264C532.05 103.114 534.46 104.074 536.89 105.114C539.4 106.194 541.88 107.444 544.26 108.824C546.85 110.324 549.2 112.194 551.23 114.374C553.31 116.614 555.01 119.304 556.27 122.354C557.54 125.444 558.19 129.104 558.19 133.214C558.19 138.864 557.04 144.294 554.79 149.354C552.53 154.414 549.25 158.884 545.03 162.624C540.87 166.314 535.79 169.284 529.93 171.454C524.09 173.614 517.48 174.704 510.27 174.704C506.8 174.704 503.31 174.344 499.9 173.634C496.53 172.934 493.31 171.974 490.31 170.774C487.28 169.564 484.46 168.084 481.94 166.394C479.34 164.644 477.16 162.704 475.47 160.634L473.65 158.404L482.75 144.754C484.02 142.934 485.48 141.524 487.14 140.494C488.98 139.354 491.18 138.774 493.69 138.774C496.12 138.774 498.27 139.394 500.1 140.614L503.95 143.184C505.11 143.964 506.54 144.704 508.21 145.394C509.63 145.984 511.66 146.284 514.22 146.284C517.53 146.284 519.9 145.654 521.25 144.404C522.55 143.214 523.15 141.944 523.15 140.414C523.15 139.304 522.91 138.464 522.41 137.864C521.65 136.944 520.6 136.124 519.28 135.414C517.7 134.564 515.88 133.794 513.85 133.104C511.58 132.334 509.2 131.464 506.78 130.524C504.26 129.544 501.79 128.394 499.42 127.104C496.85 125.704 494.5 123.914 492.46 121.794C490.35 119.604 488.63 116.884 487.36 113.734C486.09 110.584 485.45 106.804 485.45 102.504C485.45 97.3038 486.42 92.1738 488.33 87.2738C490.26 82.3238 493.18 77.8638 497 74.0438C500.8 70.2438 505.56 67.1438 511.15 64.8538C516.73 62.5638 523.27 61.4038 530.59 61.4038C537.94 61.4038 544.63 62.7038 550.47 65.2838C556.24 67.8338 561.09 71.0138 564.9 74.7538L565.48 75.3238L566.56 66.9738L582.21 63.8038L590.15 40.7038C591.66 35.9138 595.36 33.2838 600.56 33.2838ZM784.76 19.7638C779.74 19.7038 774.77 19.4838 770 19.1338C765.04 18.7638 759.67 18.5838 754.02 18.5838C746.42 18.5838 739.6 19.8538 733.74 22.3538C727.9 24.8438 722.87 28.2038 718.78 32.3238C714.71 36.4338 711.45 41.2238 709.1 46.5738C706.79 51.8338 705.26 57.3138 704.56 62.8338L704.51 63.1938H691.44L689.56 79.0038C688.86 83.6238 691 86.1438 692.34 87.2338C694.04 88.6238 696.29 89.6638 699.04 90.3238L701.07 90.8038L688.03 197.604H704.87C710.32 197.604 714.65 196.184 717.75 193.394C720.59 190.824 722.81 187.314 724.34 182.964L729.82 165.324L738.82 91.9138H757.28L760.8 63.1938H741.18C741.73 57.6338 743.3 53.5338 745.83 50.9938C748.38 48.4438 751.77 47.2038 756.2 47.2038C758.48 47.2038 760.89 47.3438 763.36 47.6238C764.429 47.7425 765.504 47.8676 766.591 47.9939L767.45 48.0938L752.19 173.134H789.65L808.56 19.7638H784.76ZM691.18 30.1838C692.44 32.8738 693.08 35.7938 693.08 38.8538C693.08 41.8838 692.41 44.7638 691.1 47.4338C689.84 49.9838 688.17 52.2538 686.13 54.1738C684.1 56.0938 681.74 57.6338 679.13 58.7638C676.44 59.9238 673.65 60.5138 670.82 60.5138C667.97 60.5138 665.2 59.9138 662.6 58.7338C660.08 57.5938 657.82 56.0338 655.88 54.0938C653.95 52.1638 652.38 49.8938 651.2 47.3438C649.98 44.7038 649.36 41.8438 649.36 38.8538C649.36 35.8738 649.98 33.0038 651.19 30.3338C652.38 27.7338 654 25.4238 656.01 23.4438C658 21.4838 660.29 19.9138 662.8 18.7738C668.05 16.3938 674.09 16.4538 679.35 18.6838C681.96 19.7938 684.31 21.3538 686.33 23.3338C688.34 25.2938 689.97 27.6038 691.18 30.1838Z" fill="#FAFBFD"/>
<path fill-rule="evenodd" clip-rule="evenodd" d="M0 99C0 44.3203 44.3203 0 99 0C153.68 0 198 44.3203 198 99C198 153.68 153.68 198 99 198H0V178.2H39.6C14.6678 159.501 0 130.157 0 99ZM19.8 99C19.8 142.742 55.2578 178.2 99 178.2C142.742 178.2 178.2 142.742 178.2 99C178.2 55.2578 142.742 19.8 99 19.8C55.2578 19.8 19.8 55.2578 19.8 99ZM99 79.2C109.935 79.2 118.8 70.3352 118.8 59.4C118.8 48.4648 109.935 39.6 99 39.6C88.0648 39.6 79.2 48.4648 79.2 59.4C79.2 70.3352 88.0648 79.2 99 79.2ZM59.4 118.8C70.3352 118.8 79.2 109.935 79.2 99C79.2 88.0648 70.3352 79.2 59.4 79.2C48.4648 79.2 39.6 88.0648 39.6 99C39.6 109.935 48.4648 118.8 59.4 118.8ZM158.4 99C158.4 109.935 149.535 118.8 138.6 118.8C127.665 118.8 118.8 109.935 118.8 99C118.8 88.0648 127.665 79.2 138.6 79.2C149.535 79.2 158.4 88.0648 158.4 99ZM99 158.4C109.935 158.4 118.8 149.535 118.8 138.6C118.8 127.665 109.935 118.8 99 118.8C88.0648 118.8 79.2 127.665 79.2 138.6C79.2 149.535 88.0648 158.4 99 158.4Z" fill="#FAFBFD"/>
</svg>
