<svg width="198" height="198" viewBox="0 0 198 198" fill="none" xmlns="http://www.w3.org/2000/svg">
<path fill-rule="evenodd" clip-rule="evenodd" d="M0 99C0 44.3203 44.3203 0 99 0C153.68 0 198 44.3203 198 99C198 153.68 153.68 198 99 198H0V178.2H39.6C14.6678 159.501 0 130.157 0 99ZM19.8 99C19.8 142.742 55.2578 178.2 99 178.2C142.742 178.2 178.2 142.742 178.2 99C178.2 55.2578 142.742 19.8 99 19.8C55.2578 19.8 19.8 55.2578 19.8 99ZM99 79.2C109.935 79.2 118.8 70.3352 118.8 59.4C118.8 48.4648 109.935 39.6 99 39.6C88.0648 39.6 79.2 48.4648 79.2 59.4C79.2 70.3352 88.0648 79.2 99 79.2ZM59.4 118.8C70.3352 118.8 79.2 109.935 79.2 99C79.2 88.0648 70.3352 79.2 59.4 79.2C48.4648 79.2 39.6 88.0648 39.6 99C39.6 109.935 48.4648 118.8 59.4 118.8ZM158.4 99C158.4 109.935 149.535 118.8 138.6 118.8C127.665 118.8 118.8 109.935 118.8 99C118.8 88.0648 127.665 79.2 138.6 79.2C149.535 79.2 158.4 88.0648 158.4 99ZM99 158.4C109.935 158.4 118.8 149.535 118.8 138.6C118.8 127.665 109.935 118.8 99 118.8C88.0648 118.8 79.2 127.665 79.2 138.6C79.2 149.535 88.0648 158.4 99 158.4Z" fill="#BD271E"/>
</svg>
